<?xml version="1.0" encoding="UTF-8" standalone="no"?><!DOCTYPE svg PUBLIC "-//W3C//DTD SVG 1.1//EN" "http://www.w3.org/Graphics/SVG/1.1/DTD/svg11.dtd"><svg width="100%" height="100%" viewBox="0 0 2250 2250" version="1.1" xmlns="http://www.w3.org/2000/svg" xmlns:xlink="http://www.w3.org/1999/xlink" xml:space="preserve" xmlns:serif="http://www.serif.com/" style="fill-rule:evenodd;clip-rule:evenodd;stroke-linejoin:round;stroke-miterlimit:2;"><g><g><path d="M1127.11,1655.63l-226.559,-457.071l157.032,0l-226.565,-457.063l85.814,0l-242.84,-489.902l-242.84,489.902l85.815,0l-226.559,457.063l157.025,0l-226.558,457.071l374.156,0l-0,242.148l157.922,0l0,-242.148l374.157,0Z" style="fill:#b7b78a;fill-rule:nonzero;"/><path d="M677.084,1897.78l-0,-1639.95l-3.091,-6.239l-242.834,489.91l85.808,0l-226.558,457.063l157.025,0l-226.559,457.071l374.157,0l-0,242.148l82.052,0Z" style="fill:#658864;fill-rule:nonzero;"/><rect x="595.033" y="1661.77" width="157.923" height="236.014" style="fill:#a08d50;"/><rect x="595.033" y="1661.77" width="82.052" height="236.014" style="fill:#8f6f37;"/></g><g><path d="M2029.12,1655.63l-226.559,-457.071l157.032,0l-226.565,-457.063l85.814,0l-242.84,-489.902l-242.84,489.902l85.815,0l-226.559,457.063l157.025,0l-226.558,457.071l374.156,0l-0,242.148l157.922,0l0,-242.148l374.157,0Z" style="fill:#b7b78a;fill-rule:nonzero;"/><path d="M1579.1,1897.78l-0,-1639.95l-3.091,-6.239l-242.834,489.91l85.808,0l-226.558,457.063l157.025,0l-226.559,457.071l374.157,0l-0,242.148l82.052,0Z" style="fill:#658864;fill-rule:nonzero;"/><rect x="1497.05" y="1661.77" width="157.923" height="236.014" style="fill:#a08d50;"/><rect x="1497.05" y="1661.77" width="82.052" height="236.014" style="fill:#8f6f37;"/></g><g><path d="M1742.2,1919.03l-309.659,-624.72l214.63,0l-309.667,-624.709l117.291,-0l-331.912,-669.594l-331.911,669.594l117.291,-0l-309.658,624.709l214.62,0l-309.658,624.72l511.393,-0l0,330.965l215.847,-0l-0,-330.965l511.393,-0Z" style="fill:#b7b78a;fill-rule:nonzero;"/><path d="M1127.11,2250l-0,-2241.47l-4.225,-8.527l-331.903,669.604l117.282,-0l-309.658,624.709l214.621,0l-309.658,624.72l511.392,0l0,330.965l112.149,-0Z" style="fill:#658864;fill-rule:nonzero;"/><rect x="1014.97" y="1927.42" width="215.847" height="322.582" style="fill:#a08d50;"/><rect x="1014.97" y="1927.42" width="112.148" height="322.582" style="fill:#8f6f37;"/></g></g></svg>